/* XPM */
static char *anim6_xpm[] = {
/* width height num_colors chars_per_pixel */
"    24    24       13            1",
/* colors */
". c None s None",
"# c #dedede",
"a c #ffffff",
"b c #adadad",
"c c #d9d9d9",
"d c #b4b4b4",
"e c #212121",
"f c #737373",
"g c #757575",
"h c #424242",
"i c #a5a5a5",
"j c #434343",
"k c #6d6d6d",
/* pixels */
".......hhhfffffff.......",
".....h.hhhhhhkfffff.....",
"....ehhh.hhffffffbbf....",
"...eh.jhhhhhhfffffbbf...",
"..ehhhehhhffffffbifbbb..",
".eeeeeh.e......fgbbbbb..",
".ee.ehhe........fgbbbbb.",
"eeee.ee..........fbbbbbb",
"e.eeee............bbbbbb",
"eee.ee.............bbbbb",
"e.ee.e.............bbbbb",
"ee.e.e.............bbbbb",
".e.e.ee............bbbbb",
".e.................bbbbb",
"e..................bbbbb",
"..................bbbbbb",
"......aa.........b#bbbb.",
".....aaaaa.....###bd#bb.",
"....aaaa#aaa#####cb#bb..",
"...aaa#aa##########bb...",
"...aaaa#aa##########....",
"......aa###########.....",
".......##########.......",
".........######........."
};
