/* XPM */
static char *anim8_xpm[] = {
/* width height num_colors chars_per_pixel */
"    24    24       13            1",
/* colors */
". c None s None",
"# c #dedede",
"a c #ffffff",
"b c #adadad",
"c c #d9d9d9",
"d c #b4b4b4",
"e c #212121",
"f c #737373",
"g c #757575",
"h c #424242",
"i c #a5a5a5",
"j c #434343",
"k c #6d6d6d",
/* pixels */
".........e..eeeee.......",
"..........eee.e.eee.....",
".............eeeeeee....",
"...aa......eee.ee.ehe...",
"...aaa........ee.eehhe..",
"...aaaa....eeeeeeheh.hh.",
"..aa#aaa...e....ehhejh..",
".#a#aaaa.........e.hhhhh",
".##aa#a...........ehh.hh",
"###a#aa............hhhhh",
"#####a.............fhhhf",
"#####a.............fhfhf",
"######.............fhfhf",
"######.............fffkf",
"######.............fffff",
".######...........ffffff",
".######..........fgbffff",
"..###c#b........fgbifbf.",
"..###bb#b......bbbbfbbf.",
"...#b#dbbbbbbbbbbbbbbf..",
"....bb#bbbbbbbbbbbbbf...",
".....bbbbbbbbbbbbbbb....",
"......bbbbbbbbbbbb......",
"........bbbbbbbbb......."
};
