/* XPM */
/* This file is covered by the xmpak copyright expressed in the file copyright.h. */
static char * new_xpm[] = {
"12 12 3 1",
" 	c None s None",
".	c #000000000000",
"X	c #51515151FBFB",
" ......     ",
" .    ..    ",
" .    . .   ",
" . XXX.  .  ",
" .    ..... ",
" . XXXXXX . ",
" .        . ",
" . XXXXXX . ",
" .        . ",
" . XXXXXX . ",
" .        . ",
" .......... "};
