/* XPM */
static char * again_xpm[] = {
"32 32 5 1",
" 	c None s None",
".	c #0000D34C0000",
"X	c #CF3CE79DDF7D",
"o	c #00005D750000",
"O	c #000086170000",
"                                ",
"                                ",
"                                ",
"                                ",
"                                ",
"                                ",
"                                ",
"             .XX......          ",
"           .XX......ooo         ",
"          .XX......ooooo        ",
"         .XX......oOoOoOo       ",
"         .XX......ooOoOoo       ",
"    .X................oOo       ",
"     .XX.............ooOOo      ",
"      .XX...........oOOoOo      ",
"       .XX.........oOOoOOo      ",
"        .XX.......oOoOOoOo      ",
"         .XX.....oOoOOoOOo      ",
"          .XX...oOOOOOOOOo      ",
"           .XX.o OOOOOOOOo      ",
"            .Xo  OOOOOOOOo      ",
"             .   OOOOOOOOo      ",
"                 OOOOOOOOo      ",
"                 OOOOOOOOo      ",
"                 ooooooooo      ",
"                                ",
"                                ",
"                                ",
"                                ",
"                                ",
"                                ",
"                                "};
