/* XPM */
static char * again_xpm[] = {
"32 32 6 1",
" 	c None",
".	c #000000",
"+	c #00D300",
"@	c #CFE7DF",
"#	c #005D00",
"$	c #008600",
"                                ",
"                                ",
"                                ",
"                                ",
"                                ",
"                                ",
"             .........          ",
"           ..+@@++++++.         ",
"          .+@@++++++..#.        ",
"         .+@@++++++.####.       ",
"        .+@@++++++.$#$#$#.      ",
"   ......+@@++++++......#.      ",
"   .+@++++++++++++++++#.#.      ",
"    .+@@+++++++++++++#.$$#.     ",
"     .+@@+++++++++++#.$#$#.     ",
"      .+@@+++++++++#.$#$$#.     ",
"       .+@@+++++++#.#$$#$#.     ",
"        .+@@+++++#.#$$#$$#.     ",
"         .+@@+++#.$$$$$$$#.     ",
"          .+@@+#.$$$$$$$$#.     ",
"           .+@#..$$$$$$$$#.     ",
"            .+. .$$$$$$$$#.     ",
"             .  .$$$$$$$$#.     ",
"                .$$$$$$$$#.     ",
"                .#########.     ",
"                ...........     ",
"                                ",
"                                ",
"                                ",
"                                ",
"                                ",
"                                "};
