/* XPM */
static char * all_xpm[] = {
"32 32 60 1",
" 	c None s None",
".	c #71C69248A699",
"X	c #71C6A289C71B",
"o	c #B6DABAEAB6DA",
"O	c #A699AAAA9658",
"+	c #8617BAEADF7D",
"@	c #9E79BEFBD75C",
"#	c #C71BCB2BB6DA",
"$	c #BEFBC71BC71B",
"%	c #CF3CCB2BC71B",
"&	c #C71BC30B9E79",
"*	c #B6DAB6DAA699",
"=	c #8E38A699B6DA",
"-	c #D75CDB6CD75C",
";	c #B6DAC71BD75C",
":	c #D75CD75CC71B",
">	c #D75CCF3CB6DA",
",	c #DF7DD34CAEBA",
"<	c #9658BEFBDF7D",
"1	c #FFFFFBEEEFBE",
"2	c #FFFFFBEEF7DE",
"3	c #AEBABEFBC71B",
"4	c #E79DDB6CC71B",
"5	c #F7DEEBADCF3C",
"6	c #D75CD34CBEFB",
"7	c #D75CCF3CC71B",
"8	c #EFBEEFBEEFBE",
"9	c #FFFFFBEEE79D",
"0	c #DF7DDF7DCF3C",
"q	c #FFFFFBEEDF7D",
"w	c #EFBEE38DC71B",
"e	c #8E38B2CADF7D",
"r	c #FFFFF7DECF3C",
"t	c #EFBEEBADCF3C",
"y	c #CF3CCB2BAEBA",
"u	c #9E79BAEACF3C",
"i	c #E79DE38DC71B",
"p	c #CF3CCF3CAEBA",
"a	c #8E3896588E38",
"s	c #E79DE38DD75C",
"d	c #F7DEF7DED75C",
"f	c #69A682079658",
"g	c #61858A28A699",
"h	c #CF3CD75CC71B",
"j	c #61858207A699",
"k	c #E79DDB6CBEFB",
"l	c #618582079658",
"z	c #8E3896589658",
"x	c #8617AAAAC71B",
"c	c #618582079E79",
"v	c #71C69A69BEFB",
"b	c #8E38AEBACF3C",
"n	c #9658B2CAD75C",
"m	c #71C69658B6DA",
"M	c #71C686179E79",
"N	c #61859248B6DA",
"B	c #61858E38AEBA",
"V	c #69A68A28A699",
"C	c #61858617AEBA",
"Z	c #59657DF79658",
"                                ",
"                                ",
"                                ",
"                                ",
"                                ",
"             .XooO              ",
"          +@#$%##&&*O           ",
"         =+--;@$:%o>,&          ",
"        <-1222-;334567,&        ",
"       =81121192805qw$,&        ",
"      e<12121299210rt:yy&       ",
"      +u59912211293iro,p*a      ",
"      +<0i0sqqq9qq7%drOfOO      ",
"     g<<@;;hhhiw554#57jfaO      ",
"     X<<@@u;h#h:k4wwi.lfzzz     ",
"     x+<<<u;::k444kk=gclazz     ",
"     vbennnusii4>>=mggcflMX     ",
"     Nxbneb3dik6>,m.gcffllX     ",
"      Xxxbxst56p#yBVclljll      ",
"      XXxxx$5tkpooMzllllll      ",
"      NvX===rw6yVV*Mcllll       ",
"       Nmvmmrw>*gMzcclll        ",
"        CCBNNmjCjZgccccl        ",
"        cjBBBBgCggccccZ         ",
"          jcCZCZccgcg           ",
"            ZCjjccZc            ",
"                                ",
"                                ",
"                                ",
"                                ",
"                                ",
"                                "};
