/* XPM */
static char * all_xpm[] = {
"32 32 61 1",
" 	c None",
".	c #000000",
"+	c #0E6FA7",
"@	c #0C75BF",
"#	c #19D819",
"$	c #9BBD14",
"%	c #0A87DF",
"&	c #0F87E4",
"*	c #C0E516",
"=	c #19E4E2",
"-	c #E78322",
";	c #D7C212",
">	c #CECB15",
",	c #117DC2",
"'	c #34E734",
")	c #1885EB",
"!	c #E9E726",
"~	c #EBB718",
"{	c #EFB914",
"]	c #0C88E7",
"^	c #FDCC46",
"/	c #FCA34D",
"(	c #1599DE",
"_	c #F0A329",
":	c #F7B932",
"<	c #EAC61F",
"[	c #E98626",
"}	c #EA4F4F",
"|	c #8BE926",
"1	c #FEE53B",
"2	c #F4B42B",
"3	c #0B6BE2",
"4	c #FDDC42",
"5	c #EBE92E",
"6	c #FEDA31",
"7	c #F3D930",
"8	c #E5CA14",
"9	c #1089DD",
"0	c #F0D629",
"a	c #E5E314",
"b	c #EDBB36",
"c	c #F7F538",
"d	c #0E5B97",
"e	c #0D669E",
"f	c #0D559E",
"g	c #13AC13",
"h	c #F1B422",
"i	c #0D6394",
"j	c #13ACAA",
"k	c #0E79CB",
"l	c #0D5898",
"m	c #0D6AB8",
"n	c #0E70D5",
"o	c #0E6BDF",
"p	c #0D66B2",
"q	c #0F53A0",
"r	c #0C68A9",
"s	c #0C65A3",
"t	c #0E5EA1",
"u	c #0C57A3",
"v	c #0C5C8F",
"                                ",
"                                ",
"                                ",
"                                ",
"             .....              ",
"          ...+@##$...           ",
"         .%&*=-**;;>$.          ",
"        .,%'')&=!-#~{;.         ",
"       .]'^//&&)((_:<[{.        ",
"      .,}^^/^^|&&&:12={;.       ",
"     .3]^/^/^/44/^567!88;.      ",
"     .%9:44^//^^/4(06#{a>.      ",
"     .%]505b111411[&c6$d$.      ",
"    .e]]&))|||02::_*&[fdg$.     ",
"    .@]]&&9)|*|!h_220+idjj.     ",
"    .k%]]]9)!!h___hh,eligj.     ",
"    .mn3ooo9b00_~~,peeldiq.     ",
"    .rkno3n(c0h<~{p+elddii.     ",
"     .@kknkb7:<a*8stliifi.      ",
"     .@@kkk=:7ha##qjiiiii.      ",
"     .rm@,,,62<8tt>qliiii.      ",
"      .rpmpp62~>eqjlliii.       ",
"       .uusrrpfufvellll.        ",
"        .fsssseueellll.         ",
"         .fluvuvllele.          ",
"          ...uffll...           ",
"             .....              ",
"                                ",
"                                ",
"                                ",
"                                ",
"                                "};
