/* XPM */
static char *anim5_xpm[] = {
/* width height num_colors chars_per_pixel */
"    24    24        7            1",
/* colors */
". c None s None",
"# c #ffffff",
"a c #dedede",
"b c #212121",
"c c #424242",
"d c #adadad",
"e c #737373",
/* pixels */
"..........eeed..........",
".......eeeddddddd.......",
".....eeeeeeeedddddd.....",
"....eeeeeedddddddddd....",
"...eeceeeeeeedddddddd...",
"..ecceeee......ddddddd..",
"..ccecce........dddddd..",
".ccecce..........dddddd.",
".cccce............ddddd.",
"c.c.c..............ddddd",
"ccccc..............dadad",
"cbcb...............dadad",
"c.cbc..............dadad",
"cbcbc..............aaaaa",
"bbb.b..............aaaaa",
".bbbbb............aaaaa.",
".bb.bbb..........aaaaaa.",
"..bbb.bbb.......#aaaaa..",
"..b..b.........#aaaaaa..",
"...b.bb.....###aaaaaa...",
"...b........#####aaa....",
"...b........##aaaaa.....",
"............#####.......",
"............##.........."
};
