/* XPM */
static char *anim2_xpm[] = {
/* width height num_colors chars_per_pixel */
"    24    24       13            1",
/* colors */
". c None s None",
"# c #dedede",
"a c #ffffff",
"b c #adadad",
"c c #d9d9d9",
"d c #b4b4b4",
"e c #212121",
"f c #737373",
"g c #757575",
"h c #424242",
"i c #a5a5a5",
"j c #434343",
"k c #6d6d6d",
/* pixels */
".........######.........",
".......##########.......",
".....###########aa......",
"....##########aa#aaaa...",
"...bb##########aa#aaa...",
"..bb#bc#####aaa#aaaa....",
".bb#db###.....aaaaa.....",
".bbbb#b.........aa......",
"bbbbbb..................",
"bbbbb..................e",
"bbbbb.................e.",
"bbbbb............ee.e.e.",
"bbbbb.............e.e.ee",
"bbbbb.............e.ee.e",
"bbbbb.............ee.eee",
"bbbbbb............eeee.e",
"bbbbbbf..........ee.eeee",
".bbbbbgf........ehhe.ee.",
"..bbbbbgf......e.heeeee.",
"..bbbfibffffffhhhehhhe..",
"...fbbfffffhhhhhhj.he...",
"....fbbffffffhh.hhhe....",
".....fffffkhhhhhh.h.....",
".......fffffffhhh......."
};
