/* XPM */
static char * anim3b_xpm[] = {
"24 24 3 1",
" 	c None s None",
".	c #CF3CBAEAAEBA",
"X	c #C71B28A20000",
"                        ",
"                        ",
"                        ",
"                        ",
"                        ",
"XXXXX  XXXXXXXXXX       ",
"XXXXX..XXXXXXXXXX       ",
"XXXXX..XXXXXXXXXX       ",
"XXXXX..XXXXXXXXXX       ",
".................       ",
".XXXXXXXXXX..XXXXXXXXXX.",
".XXXXXXXXXX..XXXXXXXXXX.",
".XXXXXXXXXX..XXXXXXXXXX.",
".XXXXXXXXXX..XXXXXXXXXX.",
"........................",
"XXXXX..XXXXXXXXXX..XXXXX",
"XXXXX..XXXXXXXXXX..XXXXX",
"XXXXX..XXXXXXXXXX..XXXXX",
"XXXXX..XXXXXXXXXX..XXXXX",
"........................",
".XXXXXXXXXX..XXXXXXXXXX.",
".XXXXXXXXXX..XXXXXXXXXX.",
".XXXXXXXXXX..XXXXXXXXXX.",
".XXXXXXXXXX..XXXXXXXXXX."};
