/* XPM */
static char * anim8_xpm[] = {
"24 24 3 1",
" 	c None s None",
".	c #C71B28A20000",
"X	c #CF3CBAEAAEBA",
"  .   .   .   .   .   . ",
"X   .   .   X   .   .   ",
"  .   .   .   .   .   . ",
"X   .   .   X   .   .   ",
"  X   X   X   X   X   X ",
".   .   .   .   .   .   ",
"  .   X   .   .   X   . ",
".   .   .   .   .   .   ",
"  .   X   .   .   X   . ",
"X   X   X   X   X   X   ",
"  .   .   .   .   .   . ",
"X   .   .   X   .   .   ",
"  .   .   .   .   .   . ",
"X   .   .   X   .   .   ",
"  X   X   X   X   X   X ",
".   .   .   .   .   .   ",
"  .   X   .   .   X   . ",
".   .   .   .   .   .   ",
"  .   X   .   .   X   . ",
"X   X   X   X   X   X   ",
"  .   .   .   .   .   . ",
"X   .   .   X   .   .   ",
"  .   .   .   .   .   . ",
"X   .   .   X   .   .   "};
