/* XPM */
static char * anim6_xpm[] = {
"24 24 3 1",
" 	c #CF3CBAEAAEBA",
".	c None s None",
"X	c #C71B28A20000",
" .XXX.XXX.X  .XXX.XXX.X ",
" XX.XXX.XXX. XX.XXX.XXX.",
" .XXX.XXX.X  .XXX.XXX.X ",
" XX.XXX.XXX. XX.XXX.XXX.",
" .   .   .   .   .   .  ",
"XXX.X  .XXX.XXX.X  .XXX.",
"X.XXX. XX.XXX.XXX. XX.XX",
"XXX.X  .XXX.XXX.X  .XXX.",
"X.XXX. XX.XXX.XXX. XX.XX",
"   .   .   .   .   .   .",
" .XXX.XXX.X  .XXX.XXX.X ",
" XX.XXX.XXX. XX.XXX.XXX.",
" .XXX.XXX.X  .XXX.XXX.X ",
" XX.XXX.XXX. XX.XXX.XXX.",
" .   .   .   .   .   .  ",
"XXX.X  .XXX.XXX.X  .XXX.",
"X.XXX. XX.XXX.XXX. XX.XX",
"XXX.X  .XXX.XXX.X  .XXX.",
"X.XXX. XX.XXX.XXX. XX.XX",
"   .   .   .   .   .   .",
" .XXX.XXX.X  .XXX.XXX.X ",
" XX.XXX.XXX. XX.XXX.XXX.",
" .XXX.XXX.X  .XXX.XXX.X ",
" XX.XXX.XXX. XX.XXX.XXX."};
