/* XPM */
static char * anim5_xpm[] = {
"24 24 2 1",
".	c #CF3CBAEAAEBA",
"X	c #C71B28A20000",
".XXXXXXXXXX..XXXXXXXXXX.",
".XXXXXXXXXX..XXXXXXXXXX.",
".XXXXXXXXXX..XXXXXXXXXX.",
".XXXXXXXXXX..XXXXXXXXXX.",
"........................",
"XXXXX..XXXXXXXXXX..XXXXX",
"XXXXX..XXXXXXXXXX..XXXXX",
"XXXXX..XXXXXXXXXX..XXXXX",
"XXXXX..XXXXXXXXXX..XXXXX",
"........................",
".XXXXXXXXXX..XXXXXXXXXX.",
".XXXXXXXXXX..XXXXXXXXXX.",
".XXXXXXXXXX..XXXXXXXXXX.",
".XXXXXXXXXX..XXXXXXXXXX.",
"........................",
"XXXXX..XXXXXXXXXX..XXXXX",
"XXXXX..XXXXXXXXXX..XXXXX",
"XXXXX..XXXXXXXXXX..XXXXX",
"XXXXX..XXXXXXXXXX..XXXXX",
"........................",
".XXXXXXXXXX..XXXXXXXXXX.",
".XXXXXXXXXX..XXXXXXXXXX.",
".XXXXXXXXXX..XXXXXXXXXX.",
".XXXXXXXXXX..XXXXXXXXXX."};
