/* XPM */
static char *anim4_xpm[] = {
/* width height num_colors chars_per_pixel */
"    24    24       13            1",
/* colors */
". c None s None",
"# c #dedede",
"a c #ffffff",
"b c #adadad",
"c c #d9d9d9",
"d c #b4b4b4",
"e c #212121",
"f c #737373",
"g c #757575",
"h c #424242",
"i c #a5a5a5",
"j c #434343",
"k c #6d6d6d",
/* pixels */
".......bbbbbbbbb........",
"......bbbbbbbbbbbb......",
"....bbbbbbbbbbbbbbb.....",
"...fbbbbbbbbbbbbb#bb....",
"..fbbbbbbbbbbbbbbd#b#...",
".fbbfbbbb......b#bb###..",
".fbfibgf........b#c###..",
"ffffbgf..........######.",
"ffffff...........######.",
"fffff.............######",
"fkfff.............######",
"fhfhf.............######",
"fhfhf.............a#####",
"fhhhf.............a#####",
"hhhhh............aa#a###",
"hh.hhe...........a#aa##.",
"hhhhh.e.........aaaa#a#.",
"..hjehhe....e...aaa#aa..",
".hh.heheeeeee....aaaa...",
"..ehhee.ee........aaa...",
"...ehe.ee.eee......aa...",
"....eeeeeee.............",
".....eee.e.eee..........",
".......eeeee..e........."
};
