/* XPM */
static char * anim0a_xpm[] = {
"24 24 3 1",
" 	c None s None",
".	c #CF3CBAEAAEBA",
"X	c #C71B28A20000",
"                        ",
"                        ",
"                        ",
"                        ",
"                        ",
"                        ",
"                        ",
"                        ",
"                        ",
"                        ",
"                        ",
"                        ",
"                        ",
"                        ",
"                        ",
"                        ",
"                        ",
"                        ",
"                        ",
"                        ",
" XXXXXXXXXX             ",
".XXXXXXXXXX             ",
".XXXXXXXXXX             ",
".XXXXXXXXXX             "};
