/* XPM */
static char * clear_xpm[] = {
"32 32 11 1",
" 	c None",
".	c #000000",
"+	c #9E6130",
"@	c #694120",
"#	c #FFBE86",
"$	c #422914",
"%	c #FAE28B",
"&	c #FFE78E",
"*	c #BEA661",
"=	c #5F3A1C",
"-	c #BDA560",
"                                ",
"                      .+@.      ",
"                     .#+.       ",
"                     .+@.       ",
"                    .#+.        ",
"                    .+@.        ",
"                   .#+.         ",
"                   .+@.         ",
"                  .#+.          ",
"                  .+@.          ",
"                 .#+.           ",
"                 .+@.           ",
"                .#+.            ",
"                .+@.            ",
"               .#+.             ",
"       ..      .+@.             ",
"      .++..   .#+.              ",
"     .+++++.. .+@.              ",
"    ..+++++++.#+.               ",
"    .@..+++++.++.               ",
"    $.@@..+++++.+..             ",
"    %&..@@..+++++++..           ",
"    .&&&..@@..+++++++..         ",
"    .&&*&&..@@..+++++++..       ",
"    .&&*&&&&..@@..+++++..       ",
"      .*&&*&&&..@@..++.@$       ",
"        .&*&*&&&..@@..@=-       ",
"          .&*&&*&&..@@.*.       ",
"            .&&*&&&&..**.       ",
"              .*&&*&&***.       ",
"                .&*&.***        ",
"                  *&.*.         "};
