/* XPM */
static char * clear_xpm[] = {
"32 32 8 1",
" 	c None s None",
".	c #FFFFBEFB8617",
"X	c #9E79618530C2",
"o	c #69A641032081",
"O	c #DF7D8A284103",
"+	c #FFFFE79DDF7D",
"@	c #FFFFE79D8E38",
"#	c #BEFBA6996185",
"                                ",
"                      .XoO      ",
"                     +.Xo       ",
"                     .XoO       ",
"                    +.Xo        ",
"                    .XoO        ",
"                   +.Xo         ",
"                   .XoO         ",
"                  +.Xo          ",
"                  .XoO          ",
"                 +.Xo           ",
"                 .XoO           ",
"                +.Xo            ",
"                .XoO            ",
"               +.Xo             ",
"       XX      .XoO             ",
"      XXXXX   +.Xo              ",
"     XXXXXXXX+.XoO              ",
"    XXXXXXXXXX.Xo               ",
"    ooXXXXXXX.XXO               ",
"    ooooXXXXXXXoXXX             ",
"    @@ooooXXXXXXXXXXX           ",
"    #@@@ooooXXXXXXXXXXX         ",
"    #@@#@@ooooXXXXXXXXXXX       ",
"    #@@#@@@@ooooXXXXXXXXo       ",
"      @#@@#@@@ooooXXXXXoo       ",
"        @@#@#@@@ooooXXoo#       ",
"          #@#@@#@@ooooo##       ",
"            #@@#@@@@oo###       ",
"              @#@@#@@####       ",
"                @@#@@###        ",
"                  #@@##         "};
