/* XPM */
static char * clean_xpm[]  = {
"32 32 17 1",
"  c #000000000101",
". c #808000000000",
"X c #000080800000",
"o c #808080800000",
"O c #000000008080",
"+ c #808000008080",
"@ c #000080808080",
"# c #808080808080",
"$ c #c0c0c0c0c0c0",
"% c #ffff00000000",
"& c #0000ffff0000",
"* c #ffffffff0000",
"= c #00000000ffff",
"- c #ffff0000ffff",
"; c #0000ffffffff",
": c #ffffffffffff",
"? s None c None m None",
"????????????????????????????????",
"????????????????????????????????",
"????                       ?????",
"??? ::::::::::::::::::::::$ ????",
"??? ::::::::::::::::::::::$ ????",
"????                       ?????",
"??? $$$$$$$$$$$$$$$$$$$$$$$ ????",
"??? ::::::::::::::::::::::$ ????",
"??? : ::   :::::::::::::::$ ????",
"??? ::  ::::::::::::::::::$ ????",
"??? ::::::::::::::::::::::$ ????",
"??? ::::::::::::::::::::::$ ????",
"??? ::::::::::::::::::::::$ ????",
"??? ::::::::::::::::::::::$ ????",
"??? ::::::::::::::::::::::$ ????",
"??? :::                 $$$ ????",
"????   :::::::::::::##$$   ?????",
"??????                   ???????",
"??????? $$$$$$$$$$$$$$$ ????????",
"??????? :::::::::###$$$ ????????",
"???????? ::::::::##$$$ ?????????",
"???????? ::::::::##$$$ ?????????",
"????????? ::::::##$$$ ??????????",
"??????????  ::###$$  ???????????",
"???????????? ###$$ ?????????????",
"???????????  ###$$  ????????????",
"?????????  :::::::##  ??????????",
"???????? $#######$$$$$ ?????????",
"????????               ?????????",
"????????????????????????????????",
"????????????????????????????????",
"????????????????????????????????"};
