/* XPM */
static char * error_xpm[] = {
"16 16 3 1",
" 	c None s None",
".	c #FFFF00000000",
"X	c #FFFFFFFFFFFF",
"                ",
"     ......     ",
"    ........    ",
"   ..........   ",
"  ............  ",
"  ............  ",
" ..XXXXXXXXXX.. ",
" ..XXXXXXXXXX.. ",
" ..XXXXXXXXXX.. ",
" ..XXXXXXXXXX.. ",
"  ............  ",
"  ............  ",
"   ..........   ",
"    ........    ",
"     ......     ",
"                "};
