/* XPM */
static char * file_next_xpm[] = {
"38 33 10 1",
" 	c None",
".	c #000000",
"+	c #00D300",
"@	c #CFE7DF",
"#	c #005D00",
"$	c #FFF6C4",
"%	c #FF0000",
"&	c #D8D1A6",
"*	c #66624E",
"=	c #FFFFFF",
"                                      ",
"                                      ",
"                                      ",
"                                      ",
"              ...........             ",
"              .+@++++++#.             ",
"              .+@@+++++#.$$$          ",
"        %%%%%%.+@++++++#.&&$&         ",
"       %%%%%%%.+@@+++++#.&&$&&        ",
"      %%%%%%%%.+@++++++#.&&$&&&       ",
"     %%%%%%%%%.+@@+++++#.&&*****      ",
"     %%%%%%%%%.+@++++++#.&&&&&&*      ",
"    %%========.+@@+++++#.&&.&&&*      ",
"    %%========.+@++++++#.&&&&&&*      ",
"    %%========.+@@+++++#.&.&.&&*      ",
"    %%========.+@++++++#.&&&&&&*      ",
"     %%%%......+@@+++++#......&*      ",
"     %%%%.+@++++++++++++++++#.&*      ",
"      %%%%.+@@+++++++++++++#.&&*      ",
"       %%%%.+@@+++++++++++#.&&&*      ",
"        %%%%.+@@+++++++++#.&.&&*      ",
"             .+@@+++++++#.&&&&&*      ",
"              .+@@+++++#.&.&.&&*      ",
"               .+@@+++#.&&&&&&&*      ",
"                .+@@+#.&..&..&&*      ",
"                $.+@#.&&&&&&&&&*      ",
"                $&.#.&&&&&&&&&&*      ",
"                $&&.&&&&&&&&&&&*      ",
"                $&&&&&&&&&&&&&&*      ",
"                 ***************      ",
"                                      ",
"                                      ",
"                                      "};
