/* XPM */
static char * gnu_m_xpm[] = {
"64 61 252 2",
"  	c None",
". 	c #414141",
"+ 	c #3C3C3C",
"@ 	c #292929",
"# 	c #212121",
"$ 	c #353535",
"% 	c #4A4A4A",
"& 	c #4C4C4C",
"* 	c #646464",
"= 	c #4E4E4E",
"- 	c #989898",
"; 	c #B7B7B7",
"> 	c #ECECEC",
", 	c #D0D0D0",
"' 	c #C2C2C2",
") 	c #BEBEBE",
"! 	c #CECECE",
"~ 	c #D9D9D9",
"{ 	c #AEAEAE",
"] 	c #939393",
"^ 	c #606060",
"/ 	c #767676",
"( 	c #A1A1A1",
"_ 	c #BFBFBF",
": 	c #D6D6D6",
"< 	c #AAAAAA",
"[ 	c #808080",
"} 	c #454545",
"| 	c #4F4F4F",
"1 	c #C1C1C1",
"2 	c #B6B6B6",
"3 	c #868686",
"4 	c #5E5E5E",
"5 	c #464646",
"6 	c #484848",
"7 	c #6E6E6E",
"8 	c #828282",
"9 	c #323232",
"0 	c #CCCCCC",
"a 	c #9C9C9C",
"b 	c #404040",
"c 	c #676767",
"d 	c #838383",
"e 	c #616161",
"f 	c #575757",
"g 	c #787878",
"h 	c #6B6B6B",
"i 	c #B1B1B1",
"j 	c #ADADAD",
"k 	c #666666",
"l 	c #858585",
"m 	c #E9E9E9",
"n 	c #474747",
"o 	c #656565",
"p 	c #565656",
"q 	c #3D3D3D",
"r 	c #8B8B8B",
"s 	c #686868",
"t 	c #7A7A7A",
"u 	c #737373",
"v 	c #7F7F7F",
"w 	c #5D5D5D",
"x 	c #424242",
"y 	c #6F6F6F",
"z 	c #C5C5C5",
"A 	c #969696",
"B 	c #B8B8B8",
"C 	c #A5A5A5",
"D 	c #5C5C5C",
"E 	c #131313",
"F 	c #505050",
"G 	c #8C8C8C",
"H 	c #9A9A9A",
"I 	c #7D7D7D",
"J 	c #7E7E7E",
"K 	c #535353",
"L 	c #878787",
"M 	c #929292",
"N 	c #F4F4F4",
"O 	c #A2A2A2",
"P 	c #A9A9A9",
"Q 	c #595959",
"R 	c #8E8E8E",
"S 	c #E5E5E5",
"T 	c #CDCDCD",
"U 	c #A6A6A6",
"V 	c #B0B0B0",
"W 	c #BDBDBD",
"X 	c #999999",
"Y 	c #A7A7A7",
"Z 	c #6C6C6C",
"` 	c #777777",
" .	c #A3A3A3",
"..	c #151515",
"+.	c #636363",
"@.	c #585858",
"#.	c #979797",
"$.	c #515151",
"%.	c #ABABAB",
"&.	c #A8A8A8",
"*.	c #2F2F2F",
"=.	c #818181",
"-.	c #747474",
";.	c #696969",
">.	c #2A2A2A",
",.	c #303030",
"'.	c #F8F8F8",
").	c #D8D8D8",
"!.	c #8A8A8A",
"~.	c #C3C3C3",
"{.	c #D7D7D7",
"].	c #9F9F9F",
"^.	c #7B7B7B",
"/.	c #333333",
"(.	c #3F3F3F",
"_.	c #D1D1D1",
":.	c #E2E2E2",
"<.	c #EBEBEB",
"[.	c #B3B3B3",
"}.	c #B4B4B4",
"|.	c #434343",
"1.	c #A4A4A4",
"2.	c #C7C7C7",
"3.	c #F2F2F2",
"4.	c #CBCBCB",
"5.	c #9B9B9B",
"6.	c #3E3E3E",
"7.	c #8F8F8F",
"8.	c #959595",
"9.	c #898989",
"0.	c #7C7C7C",
"a.	c #171717",
"b.	c #3A3A3A",
"c.	c #C0C0C0",
"d.	c #DADADA",
"e.	c #AFAFAF",
"f.	c #717171",
"g.	c #E7E7E7",
"h.	c #E3E3E3",
"i.	c #BCBCBC",
"j.	c #A0A0A0",
"k.	c #444444",
"l.	c #757575",
"m.	c #5A5A5A",
"n.	c #727272",
"o.	c #DEDEDE",
"p.	c #191919",
"q.	c #FBFBFB",
"r.	c #C9C9C9",
"s.	c #F7F7F7",
"t.	c #C8C8C8",
"u.	c #1A1A1A",
"v.	c #2D2D2D",
"w.	c #494949",
"x.	c #888888",
"y.	c #1E1E1E",
"z.	c #313131",
"A.	c #5F5F5F",
"B.	c #CACACA",
"C.	c #343434",
"D.	c #BBBBBB",
"E.	c #272727",
"F.	c #F5F5F5",
"G.	c #E1E1E1",
"H.	c #262626",
"I.	c #1C1C1C",
"J.	c #282828",
"K.	c #040404",
"L.	c #0B0B0B",
"M.	c #1F1F1F",
"N.	c #2C2C2C",
"O.	c #070707",
"P.	c #2B2B2B",
"Q.	c #0D0D0D",
"R.	c #020202",
"S.	c #090909",
"T.	c #1B1B1B",
"U.	c #919191",
"V.	c #F0F0F0",
"W.	c #DCDCDC",
"X.	c #DDDDDD",
"Y.	c #202020",
"Z.	c #141414",
"`.	c #242424",
" +	c #030303",
".+	c #181818",
"++	c #080808",
"@+	c #050505",
"#+	c #B5B5B5",
"$+	c #B9B9B9",
"%+	c #E6E6E6",
"&+	c #0A0A0A",
"*+	c #060606",
"=+	c #000000",
"-+	c #0E0E0E",
";+	c #111111",
">+	c #010101",
",+	c #C4C4C4",
"'+	c #949494",
")+	c #383838",
"!+	c #121212",
"~+	c #161616",
"{+	c #848484",
"]+	c #CFCFCF",
"^+	c #101010",
"/+	c #797979",
"(+	c #909090",
"_+	c #545454",
":+	c #BABABA",
"<+	c #EDEDED",
"[+	c #F6F6F6",
"}+	c #FEFEFE",
"|+	c #E8E8E8",
"1+	c #6D6D6D",
"2+	c #6A6A6A",
"3+	c #555555",
"4+	c #707070",
"5+	c #FCFCFC",
"6+	c #FDFDFD",
"7+	c #E4E4E4",
"8+	c #2E2E2E",
"9+	c #626262",
"0+	c #525252",
"a+	c #9D9D9D",
"b+	c #252525",
"c+	c #FAFAFA",
"d+	c #DFDFDF",
"e+	c #EFEFEF",
"f+	c #D3D3D3",
"g+	c #EAEAEA",
"h+	c #DBDBDB",
"i+	c #5B5B5B",
"j+	c #F1F1F1",
"k+	c #D5D5D5",
"l+	c #9E9E9E",
"m+	c #D2D2D2",
"n+	c #F9F9F9",
"o+	c #ACACAC",
"p+	c #D4D4D4",
"q+	c #393939",
"r+	c #E0E0E0",
"s+	c #F3F3F3",
"t+	c #C6C6C6",
"u+	c #FFFFFF",
"v+	c #EEEEEE",
"w+	c #1D1D1D",
"x+	c #B2B2B2",
"y+	c #4D4D4D",
"z+	c #0C0C0C",
"A+	c #8D8D8D",
"B+	c #4B4B4B",
"C+	c #373737",
"                                                                                                                                ",
"                            . + @ @ # $                                                                   % & *                 ",
"                      = - ; > , ' ) ! ~ { ] %                                                       ^ / ( _ : < [ }             ",
"                  | { 1 2 3 4 5 6 7 8 9 # 8 0 a b                                     '         5 c d e f / g h i j k           ",
"                l m ; n o p q r s t 7 u v w x y z A B c                               C i ] v D E F * G H I J * K L M t         ",
"              ) N O P Q @ R R S i s b t B T U V W < X                                   Y ) Z `  .) ) ; V 2 3 ..} +.@.#.$.      ",
"            %.N ! ` &.< & H &.G s       e % x                                               9 + *.*.@ I u #.=.-.;.>.,.Q M       ",
"          J '.).A !.~.T {.3                                                                               ].R ^.;./.(.& _.o     ",
"        x :.<. .X [._.}.|.                                                                                  o 1.2.5 @.k i H     ",
"        M 3.B < P g 4.5.                          6.7.8.#.!.b               9.W                               C 3 0.a.b./ c.9   ",
"      6 d.3.).4.e.O f.                        $.< g.<.h.~.i.j j.$.      y k.o l.G l.}                         A f.V m.e n.o.p.  ",
"      s q.r.P 7.< 7.k                       &.s.t.r J | u.>.v.w.r.x.x n y.k.$.*.z.I h A.                        B.] @.C.7 D.E.  ",
"      Y F.S ; u c (                       3 G.i ` H.I.J.y.K.L.M.k.[ F N.K.O.P.Q.R.S.T.5.x.                      j.A 1.U.-.U.7   ",
"      V V.W.4.#.-.=                     u X.A (.Y...Z.`.K.R. +S.E .+E % w.`.Q.++@+R.R.P.-.8.                    c.< q % ] i.#+  ",
"      $+%+h.%.b u 8.                  l : s &+*+R.O.R.R. +R.=+-+K. +;+x.R |.0.J.>+=+>+R.-+^.B                   ).z ;.3 0.< !.  ",
"    k _ ,+'+v r J X                 * ; J )+>.!+@+..R.@+&+>+ +Q.z.L.b !./ ^ d U ~+@+*+R.S.~+i 9.              m.r.@.C.f.{+B.w.  ",
"      D.X.G t u 3 ]+                i w *+R.y.$ K.!+E ^+S.*+>+J.X - /+e.(+8.K ^ .+L.9 *+S.;+C.(+3             ( p .+_++.9.{.F   ",
"      B d.:+V R U.: h             < l *.Q.*+>.w.g :+W.<+$+j.z [+}+|+9.#.; X 1+!.! r.;.2+3++ L.z.d A         A.%.6 p s 3+C ~.@.  ",
"       .<+T !.f D C '         & L 4+*.P.| 0 5+5+q.6+q.}+7+N 5+6+5+q.7+#.f.8+] s.5+q.i.V.6+N 1.9+f.^ ^ + 0+4 A . Z.w.d 3 2 a+/+  ",
"      X :.j _+u q } ( 7 F p 3 J `.b+b.c.5+6+c+}+5+d+1.h % e+q.}+<+$+f+q.S A / g+[+! h+&.'.5+6+2.v % w a 9+E.w.i+5 * +.O 1 I     ",
"      P.7+$+&._+E.p i+x $+f+k b+R.E.o.6+6+6+6+c+g.1+5.Q.^.}+}+5+6+j+k+> F.j.G N #+. ).k+{.5+q.6+l+0.6 o q H.`.} p # ]._ &.      ",
"      @.1 > , Q x 1+m.~+Q 9+`.&+6 m+6+6+6+6+6+N - (+~.^ V.c+|+7+f+c+c+m n+q.6+5+f.X g.q.) }+6+5+n+^.h A.k ^ E.k =.r o+T 4+      ",
"        f.f+T i a+-.i+9 b M.6.*.j 6+q.c+6+5+6+h.&.|+j+s.V.p+<+q.O ~ 6+).d+5+5+3.+ 2 j+7+d.6+q.6+q.) t l.c s x.j 1.1 B.-         ",
"          j m+1./+H 7.+ n q+n.A.'.}+6+}+5+5+3.:.3.> 6+}+g.S d.) 2 r+q.s+G.5+6+<.d ).B $+<.5+}+5+6+c+2+] -.- l+$+_ 4.`           ",
"            8.V r.t+x.%.Q R U.c.u+u+u+u+u+u+u+u+v+7+6+6+a N.>.K.f P F.6+g+c+5+5+(+].w+I.v s.5+5+c+6+U t  .z P X.) r             ",
"              k+x+B 5.]+1 :.;.c+u+u+u+u+u+u+u+u+e+<.6+6+C 1 - -+y+S 5+6+'.'.6+5+o.6 z+8 z c+5+5+}+}+j+t I a+%.9+i+              ",
"              A+]+o.P Y , d.5.6+u+u+u+u+u+u+u+}+p+[+6+}+r+( r.M d+d.s.}+6+q.6+}+c+2.(+$+5.N 5+6+q.q.5+! 0.                      ",
"                A.r 2.:.m m _.6+u+u+u+u+u+u+u+q.( 6+6+6+6+[+> z m+N :.6+5+6+}+6+}+6+< V x+[+6+}+5+q.c+c+W                       ",
"                    D ` &.A f+5+u+u+u+u+}+5+5+%+[.F.}+6+u+u+u+}+5+[+'.6+6+6+6+u+6+5+g.! &.$+5+}+}+}+6+6+6+f.                    ",
"                          c '.6+u+u+u+}+c+5+5+_ ,+N 6+6+u+u+u+u+}+}+5+6+5+6+6+6+6+5+q.B D.  ~.n+6+6+}+5+5+(+                    ",
"                          p q.5+u+u+u+}+5+'.h.k+r+j+6+6+u+u+u+}+}+}+5+q.q.c+5+5+}+}+5+g.[.A.  e 5.t+q.g.5+%+B+q+                ",
"                          2 6+}+u+u+u+}+5+d.' 6+F.g+5+6+u+u+u+u+6+}+s._ a+X _ 5+6+}+q.6+Y k.        4 U 5.$+4                   ",
"                        r.q.c+}+}+6+6+c+p+j N 5+6+v+6+}+5+6+6+6+}+v+2 X.c+q.:.d.m 5+}+q.j+v h }.L                               ",
"                        z 5+q.6+5+q.G.a j.c+6+5+6+6+5+6+}+6+6+6+5+: =.v h+s+q.s.I g d+5+5+c+<.}+:.f                             ",
"                      y :.5+q._ '+d ( k+}.6+q.6+6+6+}+}+}+5+6+5+q.G.L ]+D.U 7+5+6+B.R <.6+}+q.6+5+ .                            ",
"                    8 j+n+' G ].1.F.5+n+2.n+q.}+6+6+6+6+v+S c+}+6+3.{.c+l q H d.5+}+[+S c+6+}+6+q._                             ",
"                    ).j w u   1+d+}+q.6+0 %+5+5+u+u+u+}+m s+5+}+6+5+s.q.6+6+X.M |+5+6+6+}+}+5+}+6+[                             ",
"                    x         s q.6+}+s+O 0 5+u+u+u+u+u+}+5+h.t.5+e+<.5+6+}+g., T 5+6+6+6+6+[+{.u                               ",
"                              u 5+}+6+c+B _ 6+6+u+u+u+}+q.6+6+G.7+X.6+5+5+6+c+n+e+6+5+}+6+7+J K                                 ",
"                              n.}+6+}+}+c+) m }+u+u+u+}+c+}+5+s.}.|+6+6+6+q.6+u+5+5+5+g+#.4+A.                                  ",
"                              1+6+}+5+}+6+p+d.5+c+6+5+6+u+u+u+}+h+j.5+q.q.}+6+q.6+5+6+o.~.:. .                                  ",
"                              t 3.6+}+5+q.X.~.r.V.q.q.}+u+u+u+}+6+z h.6+5+q.5+q.q.6+5+}+5+5+}+1.                                ",
"                                t+6+6+}+5+6+m t.T e+5+}+u+u+u+}+5+N I h+q.6+5+5+q.5+c+6+5+v+%+%.[                               ",
"                                0 5+6+6+6+}+c+v+{.c.V.6+u+u+u+u+6+c+V.[.G Y D.d.X C L 3+C+@+/.+.                                ",
"                                5 }+6+6+u+u+u+c+2 t.[+6+6+}+5+5+6+}+}+q.t.2 &.e.|+6+5+6+6+'                                     ",
"                                  ~ q.6+u+u+u+N ~.<+c+6+}+6+6+6+}+5+}+6+c+q.6+5+6+6+6+q.6+d+l                                   ",
"                                  ' 5+6+u+u+u+}+f+r., F.5+6+6+6+6+'.q.5+5+5+N e+5+5+5+6+5+4.=.                                  ",
"                                  g v+5+u+u+u+6+5+m _.&.3.q.6+6+6+}+3.).q.<.$+h Y.*+p.@.t /                                     ",
"                                    X }+q.}+5+6+6+5+3.]+{.5+n+c+}+}+F.v+I Q .+9 + 8+                                            ",
"                                      ).6+6+c+5+6+5+N h+V.e+k+s.6+'.6+s.> r.{ :+:.2+                                            ",
"                                        h+6+5+6+5+6+g.V.> : ' %+G.n+6+5+q.s+h+V.'.{ 9.                                          ",
"                                        A.) s.}+6+5+c+h+g.o.M T d+6+5+6+6+5+[+{.e+d.I                                           ",
"                                          0 {.s.5+u+u+u+S k+~ ! 0 5+q.}+6+5+n+' r+&.                                            ",
"                                            A+V.}+u+}+6+6+F.<.h+D.~.n+5+5+q.W B D.7.                                            ",
"                                          R 4.$+u+u+}+6+r+M h+<+]+! ).q.h.7.7.' |+%.4.(+                                        ",
"                                                    H x.  k+( 6+).< f+h.e.P [.7+S 5+g+                                          ",
"                                                        7.<   W.].[.:.2.~.e f+- '+~ G.R                                         ",
"                                                          4.    ! R B.B.}.9+2.* @ + 2+U.                                        ",
"                                                          - l+  4.!.0+,+O ;.~ j w.0+K                                           ",
"                                                                  ,   [.W.$+:+d+H - B.d.                                        ",
"                                                                        h     4                                                 "};
