#define help_cursor_mask_width 9
#define help_cursor_mask_height 15
static unsigned char help_cursor_mask_bits[] = {
 0x7c,0xfe,0xfe,0xfe,0xff,0xff,0xff,0xff,0xff,0xff,0xfe,0xff,0xf4,0xfe,0x78,
 0xfe,0x38,0xfe,0x38,0xfe,0x38,0xfe,0x7c,0xfe,0x7c,0xfe,0x7c,0xfe,0x38,0xfe
 };
