#define help_cursor_width 9
#define help_cursor_height 15
#define help_cursor_hot_x 4
#define help_cursor_hot_y 7
static char help_cursor_bits[] = {
 0x00,0x00,0x7c,0x00,0xe6,0x00,0xee,0x00,0xee,0x00,0xe4,0x00,0x60,0x00,0x30,
 0x00,0x10,0x00,0x10,0x00,0x00,0x00,0x38,0x00,0x38,0x00,0x38,0x00,0x00,0x00
 };
