/* XPM */
static char * maketool_xpm[] = {
"32 32 13 1",
" 	c None s None",
".	c #FFFFFFFFFFFF",
"X	c #FFFFCF3CC71B",
"o	c #FFFF9E794924",
"O	c #9E79618530C2",
"+	c #618538E31861",
"@	c #B6DAB2CAB6DA",
"#	c #71C671C671C6",
"$	c #FFFF00000000",
"%	c #C71B00000000",
"&	c #DF7DDF7DDF7D",
"*	c #9E799E799E79",
"=	c #A69900000000",
"                      ......    ",
"                  .......XoO.   ",
"               ........XoOOO+.  ",
"              ........XoOOOO+.  ",
"               ......ooOOOO+... ",
"               .....oOOOOO+..   ",
"             .......o@OO++..    ",
"          .........@@#++.....   ",
"        ........$$.@#.........  ",
"       ........$$$@#..........  ",
"       .......$$$$@#$$.......   ",
"       ......$$$%$@#$$$$....    ",
"      ......$@@@@@@#%%$$$...    ",
"     ......@@&&&&@@$$%%$$$...   ",
"   .......@&&&@@@@*#$%%$$=....  ",
"  .......@&&@@@@@@*#$%$$==....  ",
" .......$@&@@@@@@***#$$===....  ",
" ......$@&@@@@@@****#$====....  ",
" .....$@&@@@@@****##$=====...   ",
" ....$@&@@@*****##$$======...   ",
"  ...@&@@@****##%$$======....   ",
"  ...@@****###$%$$======.....   ",
" ...@@@*###$$%%$$======.....    ",
" ..@@*##%%$$$$$$======.....     ",
" ..@*#%%%%%%$$$======....       ",
"..@@.%%%%%%%%%======......      ",
".....%%%%%%%%%=====.......      ",
" .....%%%%%%%%====.........     ",
"   .....%%%%%%===...  ....      ",
"       ...%%%%==....            ",
"         ...%%=....             ",
"           .....                "};
