/* XPM */
static char * maketool_xpm[] = {
"32 32 13 1",
" 	c None",
".	c #FFFFFF",
"+	c #FFCFC7",
"@	c #FF9E49",
"#	c #9E6130",
"$	c #613818",
"%	c #B6B2B6",
"&	c #717171",
"*	c #FF0000",
"=	c #C70000",
"-	c #DFDFDF",
";	c #9E9E9E",
">	c #A60000",
"            ....................",
"         ................+@#....",
"       ................+@###$...",
"      ................+@####$...",
"     ................@@####$....",
"    ................@#####$.....",
"   .................@%##$$......",
"  .................%%&$$........",
"  ..............**.%&...........",
" ..............***%&............",
" .............****%&**..........",
" ............***=*%&****........",
"............*%%%%%%&==***.......",
"...........%%----%%**==***......",
"..........%---%%%%;&*==**>......",
".........%--%%%%%%;&*=**>>......",
"........*%-%%%%%%;;;&**>>>......",
".......*%-%%%%%%;;;;&*>>>>......",
"......*%-%%%%%;;;;&&*>>>>>......",
".....*%-%%%;;;;;&&**>>>>>>......",
".....%-%%%;;;;&&=**>>>>>>...... ",
".....%%;;;;&&&*=**>>>>>>....... ",
"....%%%;&&&**==**>>>>>>........ ",
"...%%;&&==******>>>>>>........  ",
"...%;&======***>>>>>>.........  ",
"..%%.=========>>>>>>.........   ",
".....=========>>>>>.........    ",
"......========>>>>.........     ",
"........======>>>.........      ",
"..........====>>.........       ",
"............==>........         ",
"....................            "};
