/* XPM */
static char * maketool_l_xpm[] = {
"64 64 15 1",
" 	c None",
".	c #FFCFC7",
"+	c #FF9E49",
"@	c #9E6130",
"#	c #613818",
"$	c #B6B2B6",
"%	c #717171",
"&	c #FF0000",
"*	c #C70000",
"=	c #9E9E9E",
"-	c #DFDFDF",
";	c #C7C3C7",
">	c #A60000",
",	c #AEAAAE",
"'	c #FFFFFF",
"                          ''''''''''''''''''''''''''''''''''''''",
"                      ''''''''''''''''''''''''''''''''''''''''''",
"                    ''''''''''''''''''''''''''''''..++@@''''''''",
"                 '''''''''''''''''''''''''''''''..+++@@@#'''''''",
"                ''''''''''''''''''''''''''''''..+++@@@@@##''''''",
"              '''''''''''''''''''''''''''''''..+++@@@@@@##''''''",
"             '''''''''''''''''''''''''''''''..++@@@@@@@@##''''''",
"           ''''''''''''''''''''''''''''''''..++@@@@@@@@@#'''''''",
"          ''''''''''''''''''''''''''''''''.+++@@@@@@@@@##'''''''",
"         ''''''''''''''''''''''''''''''''.+++@@@@@@@@@##''''''''",
"        ''''''''''''''''''''''''''''''''..++@@@@@@@@###'''''''''",
"       '''''''''''''''''''''''''''''''''.+@@@@@@@@@##'''''''''''",
"       '''''''''''''''''''''''''''''''''+$$$@@@@@###''''''''''''",
"      ''''''''''''''''''''''''''''''''''$$$$@@@@###'''''''''''''",
"     ''''''''''''''''''''''''''''''''''$$$$%#####'''''''''''''''",
"     '''''''''''''''''''''''''''''''''$$$$%%###'''''''''''''''''",
"    ''''''''''''''''''''''''''''&''''$$$$%''''''''''''''''''''''",
"   ''''''''''''''''''''''''''''&&&&''$$$%%''''''''''''''''''''''",
"   '''''''''''''''''''''''''''&&&&&&$$$%''''''''''''''''''''''''",
"   ''''''''''''''''''''''''''&&&&&&&$$%%''''''''''''''''''''''''",
"  ''''''''''''''''''''''''''&&&&&&&&$$%%&&''''''''''''''''''''''",
"  '''''''''''''''''''''''''&&&&&&&&&$$%%&&&&''''''''''''''''''''",
" '''''''''''''''''''''''''&&&&&&****$$%%&&&&&&''''''''''''''''''",
" ''''''''''''''''''''''''&&&&&&*****$$%%**&&&&&&''''''''''''''''",
" '''''''''''''''''''''''&&&&$$$$$$$$$$%%****&&&&&&''''''''''''''",
" ''''''''''''''''''''''&&$$$$$$$$$$$$=%&&****&&&&&&&''''''''''''",
"''''''''''''''''''''''&$$$$-------$$$=&&&&&***&&&&&&''''''''''''",
"'''''''''''''''''''''&$$$------;;;$$$==&&&&***&&&&&>''''''''''''",
"''''''''''''''''''''&$$-----;;;;$$$$====&&&***&&&&>>''''''''''''",
"'''''''''''''''''''&$$----;;;$$$$$$$,=%%&&&***&&&>>>''''''''''''",
"''''''''''''''''''&$$---;;;$$$$$$$$$,=%%%&***&&&>>>>''''''''''''",
"'''''''''''''''''&$$---;;;$$$$$$$$$,,==%%&**&&&>>>>>''''''''''''",
"''''''''''''''''&&$$--;;$$$$$$$$$$,,====%%*&&&>>>>>>''''''''''''",
"'''''''''''''''&&$$--;;$$$$$$$$$$,,,====%%&&&>>>>>>>''''''''''''",
"''''''''''''''&&$$--;;$$$$$$$$$,,,,=====%%&&>>>>>>>>''''''''''''",
"'''''''''''''&&$$--;;$$$$$$$$$,,,=======%%&>>>>>>>>>''''''''''''",
"''''''''''''&&$$--;;$$$$$$$$,,,,======%%%&>>>>>>>>>>''''''''''''",
"'''''''''''&&$$--;;$$$$$$$,,,,======%%%%&>>>>>>>>>>>''''''''''''",
"''''''''''&&$$--;;$$$$$$,,,========%%%&&>>>>>>>>>>>>''''''''''' ",
"''''''''''&$$--;;$$$$$,,,========%%%&&&>>>>>>>>>>>>'''''''''''' ",
"''''''''''$$--;;$$$$,,,,======%%%%*&&&>>>>>>>>>>>>''''''''''''' ",
"''''''''''$$-;;$$$$$,,,=====%%%%**&&&>>>>>>>>>>>>'''''''''''''' ",
"'''''''''$$-;;$$$,,,=====%%%%%&**&&&>>>>>>>>>>>>''''''''''''''  ",
"'''''''''$-;;$$$,,====%%%%%%&&**&&&>>>>>>>>>>>>'''''''''''''''  ",
"''''''''$$;;$,,,===%%%%%&&*****&&&>>>>>>>>>>>>'''''''''''''''   ",
"''''''''$$;$$===%%%%%%&&&*****&&&>>>>>>>>>>>>''''''''''''''''   ",
"'''''''$$$$$==%%****&&&&&&&&&&&&>>>>>>>>>>>>'''''''''''''''''   ",
"'''''''$$$==%%********&&&&&&&&&>>>>>>>>>>>>'''''''''''''''''    ",
"''''''$$$=%%************&&&&&&>>>>>>>>>>>>'''''''''''''''''     ",
"''''''$$==%***************&&&>>>>>>>>>>>>''''''''''''''''''     ",
"'''''$$=''******************>>>>>>>>>>>>''''''''''''''''''      ",
"''''''''''******************>>>>>>>>>>>''''''''''''''''''       ",
"''''''''''******************>>>>>>>>>>'''''''''''''''''''       ",
"''''''''''******************>>>>>>>>>'''''''''''''''''''        ",
"''''''''''''****************>>>>>>>>'''''''''''''''''''         ",
"''''''''''''''**************>>>>>>>'''''''''''''''''''          ",
"''''''''''''''''************>>>>>>'''''''''''''''''''           ",
"''''''''''''''''''**********>>>>>''''''''''''''''''             ",
"''''''''''''''''''''********>>>>''''''''''''''''''              ",
"''''''''''''''''''''''******>>>'''''''''''''''''                ",
"''''''''''''''''''''''''****>>'''''''''''''''''                 ",
"''''''''''''''''''''''''''**>'''''''''''''''                    ",
"''''''''''''''''''''''''''''''''''''''''''                      ",
"''''''''''''''''''''''''''''''''''''''                          "};
