/* XPM */
static char * next_xpm[] = {
"32 32 7 1",
" 	c None",
".	c #000000",
"+	c #00D300",
"@	c #CFE7DF",
"#	c #005D00",
"$	c #FF0000",
"%	c #FFFFFF",
"                                ",
"                                ",
"                                ",
"                                ",
"              ...........       ",
"              .+@++++++#.       ",
"              .+@@+++++#.       ",
"        $$$$$$.+@++++++#.       ",
"       $$$$$$$.+@@+++++#.       ",
"      $$$$$$$$.+@++++++#.       ",
"     $$$$$$$$$.+@@+++++#.       ",
"     $$$$$$$$$.+@++++++#.       ",
"    $$%%%%%%%%.+@@+++++#.       ",
"    $$%%%%%%%%.+@++++++#.       ",
"    $$%%%%%%%%.+@@+++++#.       ",
"    $$%%%%%%%%.+@++++++#.       ",
"     $$$$......+@@+++++#......  ",
"     $$$$.+@++++++++++++++++#.  ",
"      $$$$.+@@+++++++++++++#.   ",
"       $$$$.+@@+++++++++++#.    ",
"        $$$$.+@@+++++++++#.     ",
"             .+@@+++++++#.      ",
"              .+@@+++++#.       ",
"               .+@@+++#.        ",
"                .+@@+#.         ",
"                 .+@#.          ",
"                  .#.           ",
"                   .            ",
"                                ",
"                                ",
"                                ",
"                                "};
