/* XPM */
static char * next_xpm[] = {
"32 32 6 1",
" 	c None s None",
".	c #0000D34C0000",
"X	c #CF3CE79DDF7D",
"o	c #00005D750000",
"O	c #FFFF00000000",
"+	c #FFFFFFFFFFFF",
"                                ",
"                                ",
"                                ",
"                                ",
"                                ",
"               .X......o        ",
"               .XX.....o        ",
"        OOOOOO .X......o        ",
"       OOOOOOOO.XX.....o        ",
"      OOOOOOOOO.X......o        ",
"     OOOOOOOOOO.XX.....o        ",
"     OOOOOOOOOO.X......o        ",
"    OO+++++++++.XX.....o        ",
"    OO+++++++++.X......o        ",
"    OO+++++++++.XX.....o        ",
"    OO+++++++++.X......o        ",
"     OOOOOOOOOO.XX.....o        ",
"     OOOOO.X................o   ",
"      OOOOO.XX.............o    ",
"       OOOOO.XX...........o     ",
"        OOOOO.XX.........o      ",
"              .XX.......o       ",
"               .XX.....o        ",
"                .XX...o         ",
"                 .XX.o          ",
"                  .Xo           ",
"                   o            ",
"                                ",
"                                ",
"                                ",
"                                ",
"                                "};
