/* XPM */
static char * pause_xpm[] = {
"32 32 5 1",
" 	c None",
".	c #000000",
"+	c #CFE7DF",
"@	c #00D300",
"#	c #008600",
"                                ",
"                                ",
"                                ",
"                                ",
"    ........       ........     ",
"   .++++++++.     .++++++++.    ",
"   .+@@@@@@#.     .+@@@@@@#.    ",
"   .+@@@@@@#.     .+@@@@@@#.    ",
"   .+@@@@@@#.     .+@@@@@@#.    ",
"   .+@@@@@@#.     .+@@@@@@#.    ",
"   .+@@@@@@#.     .+@@@@@@#.    ",
"   .+@@@@@@#.     .+@@@@@@#.    ",
"   .+@@@@@@#.     .+@@@@@@#.    ",
"   .+@@@@@@#.     .+@@@@@@#.    ",
"   .+@@@@@@#.     .+@@@@@@#.    ",
"   .+@@@@@@#.     .+@@@@@@#.    ",
"   .+@@@@@@#.     .+@@@@@@#.    ",
"   .+@@@@@@#.     .+@@@@@@#.    ",
"   .+@@@@@@#.     .+@@@@@@#.    ",
"   .+@@@@@@#.     .+@@@@@@#.    ",
"   .+@@@@@@#.     .+@@@@@@#.    ",
"   .+@@@@@@#.     .+@@@@@@#.    ",
"   .+@@@@@@#.     .+@@@@@@#.    ",
"   .+@@@@@@#.     .+@@@@@@#.    ",
"   .+@@@@@@#.     .+@@@@@@#.    ",
"   .+#######.     .+#######.    ",
"    ........       ........     ",
"                                ",
"                                ",
"                                ",
"                                ",
"                                "};
