/* XPM */
static char * print_xpm[] = {
"32 32 10 1",
" 	c None s None",
".	c #C71BC30BC71B",
"X	c #514455555144",
"o	c #EFBEE38DB6DA",
"O	c #FFFFF7DEDF7D",
"+	c #AEBAA2898617",
"@	c #D75CC71B9E79",
"#	c #71C671C65144",
"$	c #96588E3871C6",
"%	c #CF3CC30B9658",
"         .                      ",
"        ...XX                   ",
"       .....XX    oo            ",
"      .......XX  oooo           ",
"     ....X....XXoooooo          ",
"    ....X......oooooooo         ",
"   ....X...X..oooooooooo        ",
"  ....X...X..oooooooooooo       ",
" X...X...X..oooooooooooooo      ",
"  X.....X..oooooooooooooooo     ",
"  XX...X..oooooooooooooooooo    ",
"  XXX....ooooooooooooooooooO    ",
"   XXX..ooooooooooooooooooO+    ",
"    XXXooooooooooooooooooO++    ",
"     XooooooooooooooooooO+++    ",
"     ooooooooooooooooooO++++    ",
"     OooooooooooooooooO+++++    ",
"     @OooooooooooooooO+++++     ",
"     @@OooooooooooooO+++++#     ",
"     @@@OooooooooooO++++###     ",
"     @@@@OooooooooO++++#..      ",
"     @@@@@OooooooO++++#....     ",
"      @@@@@OooooO++++#.X....    ",
"      #@@@@@OooO+++$#...X....   ",
"      ##@@@@@OO$$$$#.....X..X   ",
"       ##%%@@O$$$$#.X......X    ",
"        ##%%%O$$$#...X....X     ",
"         ##%%O$$$#X...X..X      ",
"          ##%O$$## X....X       ",
"           ##O$##   X..X        ",
"            ####     XX         ",
"             ##                 "};
