/* XPM */
static char * print_xpm[]  = {
"32 32 5 1",
": s None c None m None",
"  c #000000000000",
"* c #c0c0c0c0c0c0",
"$ c #f8f8f0f0c0c0",
"# c #d8d8d0d0a0a0",
"::::::::: ::::::::::::::::::::::",
":::::::: *   :::::::::::::::::::",
"::::::: ***   ::::  ::::::::::::",
":::::: *****   :: $$ :::::::::::",
"::::: *** ***    $$$$ ::::::::::",
":::: *** *****  $$$$$$ :::::::::",
"::: *** *** ** $$$$$$$$ ::::::::",
":: *** *** ** $$$$$$$$$$ :::::::",
": *** *** ** $$$$$$$$$$$$ ::::::",
":: ***** ** $$$$$$$$$$$$$$ :::::",
"::  *** ** $$$$$$$$$$$$$$$$ ::::",
"::   **** $$$$$$$$$$$$$$$$$ ::::",
":::   ** $$$$$$$$$$$$$$$$$  ::::",
"::::    $$$$$$$$$$$$$$$$$ # ::::",
":::::  $$$$$$$$$$$$$$$$$ ## ::::",
"::::: $$$$$$$$$$$$$$$$$ ### ::::",
"::::: $$$$$$$$$$$$$$$$ #### ::::",
":::::  $$$$$$$$$$$$$$ #### :::::",
"::::: # $$$$$$$$$$$$ ####  :::::",
"::::: ## $$$$$$$$$$ ####   :::::",
"::::: ### $$$$$$$$ ####   ::::::",
"::::: #### $$$$$$ #### *** :::::",
":::::: #### $$$$ #### * *** ::::",
"::::::  #### $$ #### *** *** :::",
":::::: $ ####  #### ***** ** :::",
"::::::: $ ######## * ****** ::::",
":::::::: $ ###### *** **** :::::",
"::::::::: $ #### $ *** ** ::::::",
":::::::::: $ ## $ : **** :::::::",
"::::::::::: $  $ ::: ** ::::::::",
":::::::::::: $$ :::::  :::::::::",
":::::::::::::  :::::::::::::::::"};
