/* XPM */
static char * print_xpm[] = {
"32 32 10 1",
" 	c None",
".	c #000000",
"+	c #C7C3C7",
"@	c #515551",
"#	c #EFE3B6",
"$	c #AEA286",
"%	c #D7C79E",
"&	c #717151",
"*	c #968E71",
"=	c #CFC396",
"         .                      ",
"        .+...                   ",
"       .+++.@.    ..            ",
"      .+++++.@.  .##.           ",
"     .+++@+++.@..####.          ",
"    .+++@+++++..######.         ",
"   .+++@+++@++.########.        ",
"  .+++@+++@++.##########.       ",
" ..++@+++@++.############.      ",
"  ..++++@++.##############.     ",
"  .@.++@++.################.    ",
"  .@@.+++.#################.    ",
"   .@@.+.#################..    ",
"    .@@.#################.$.    ",
"     ..#################.$$.    ",
"     .#################.$$$.    ",
"     .################.$$$$.    ",
"     ..##############.$$$$.     ",
"     .%.############.$$$$..     ",
"     .%%.##########.$$$$.&.     ",
"     .%%%.########.$$$$.+.      ",
"     .%%%%.######.$$$$.+++.     ",
"      .%%%%.####.$$$$.+@+++.    ",
"      ..%%%%.##.$$$*.+++@+++.   ",
"      .&.%%%%..****.+++++@++.   ",
"       .&.=%%.****.+@++++++.    ",
"        .&.==.***.+++@++++.     ",
"         .&.=.**.&.+++@++.      ",
"          .&..*.&. .++++.       ",
"           .&..&.   .++.        ",
"            ..&.     ..         ",
"             ..                 "};
